<?xml version="1.0" encoding="UTF-8" standalone="no"?>
<!-- Created with Inkscape (http://www.inkscape.org/) -->

<svg
   xmlns:dc="http://purl.org/dc/elements/1.1/"
   xmlns:cc="http://creativecommons.org/ns#"
   xmlns:rdf="http://www.w3.org/1999/02/22-rdf-syntax-ns#"
   xmlns:svg="http://www.w3.org/2000/svg"
   xmlns="http://www.w3.org/2000/svg"
   xmlns:sodipodi="http://sodipodi.sourceforge.net/DTD/sodipodi-0.dtd"
   xmlns:inkscape="http://www.inkscape.org/namespaces/inkscape"
   width="1052.3622"
   height="744.09448"
   id="svg2"
   version="1.1"
   inkscape:version="0.48.4 r9939"
   sodipodi:docname="Disallowed_Sign.svg">
  <defs
     id="defs4" />
  <sodipodi:namedview
     id="base"
     pagecolor="#ffffff"
     bordercolor="#666666"
     borderopacity="1.0"
     inkscape:pageopacity="0.0"
     inkscape:pageshadow="2"
     inkscape:zoom="0.48683483"
     inkscape:cx="308.46652"
     inkscape:cy="303.51568"
     inkscape:document-units="mm"
     inkscape:current-layer="layer3"
     showgrid="false"
     inkscape:window-width="1366"
     inkscape:window-height="702"
     inkscape:window-x="0"
     inkscape:window-y="27"
     inkscape:window-maximized="1"
     showguides="true"
     inkscape:guide-bbox="true"
     inkscape:snap-global="false"
     inkscape:object-nodes="true"
     units="mm" />
  <metadata
     id="metadata7">
    <rdf:RDF>
      <cc:Work
         rdf:about="">
        <dc:format>image/svg+xml</dc:format>
        <dc:type
           rdf:resource="http://purl.org/dc/dcmitype/StillImage" />
        <dc:title />
      </cc:Work>
    </rdf:RDF>
  </metadata>
  <g
     inkscape:label="Laser"
     inkscape:groupmode="layer"
     id="layer1"
     transform="translate(0,-308.2677)"
     style="display:inline">
    <path
       style="font-size:medium;font-style:normal;font-variant:normal;font-weight:normal;font-stretch:normal;text-indent:0;text-align:start;text-decoration:none;line-height:normal;letter-spacing:normal;word-spacing:normal;text-transform:none;direction:ltr;block-progression:tb;writing-mode:lr-tb;text-anchor:start;baseline-shift:baseline;color:#000000;fill:none;stroke:#ff0000;stroke-width:0.70866144;stroke-miterlimit:4;stroke-dasharray:none;marker:none;visibility:visible;display:inline;overflow:visible;enable-background:accumulate;font-family:Sans;-inkscape-font-specification:Sans"
       d="m 526.09375,318.11145 c -142.55461,0 -258.40625,115.88289 -258.40625,258.4375 0,109.27226 68.07273,202.87515 164.0625,240.625 l -374.71875,0 a 14.174646,14.174646 0 0 0 -14.1875,14.1875 l 0,201.49995 a 14.174646,14.174646 0 0 0 14.1875,14.1875 l 938.15625,0 a 14.174646,14.174646 0 0 0 14.1563,-14.1875 l 0,-201.49995 a 14.174646,14.174646 0 0 0 -14.1563,-14.1875 l -374.75,0 c 95.99834,-37.74985 164.09375,-131.35274 164.09375,-240.625 0,-142.55461 -115.88289,-258.4375 -258.4375,-258.4375 z"
       id="path3904"
       inkscape:connector-curvature="0" />
    <path
       style="font-size:medium;font-style:normal;font-variant:normal;font-weight:normal;font-stretch:normal;text-indent:0;text-align:start;text-decoration:none;line-height:normal;letter-spacing:normal;word-spacing:normal;text-transform:none;direction:ltr;block-progression:tb;writing-mode:lr-tb;text-anchor:start;baseline-shift:baseline;color:#000000;fill:none;stroke:#0000ff;stroke-width:0.70866144;stroke-miterlimit:4;stroke-dasharray:none;marker:none;visibility:visible;display:inline;overflow:visible;enable-background:accumulate;font-family:Sans;-inkscape-font-specification:Sans"
       d="m 526.09375,346.48645 c 127.23505,0 230.09375,102.82745 230.09375,230.0625 0,43.05136 -11.80118,83.28986 -32.3125,117.71875 L 333.75,450.17395 c 41.092,-62.49815 111.81534,-103.6875 192.34375,-103.6875 z"
       id="path3902"
       inkscape:connector-curvature="0" />
    <path
       style="font-size:medium;font-style:normal;font-variant:normal;font-weight:normal;font-stretch:normal;text-indent:0;text-align:start;text-decoration:none;line-height:normal;letter-spacing:normal;word-spacing:normal;text-transform:none;direction:ltr;block-progression:tb;writing-mode:lr-tb;text-anchor:start;baseline-shift:baseline;color:#000000;fill:none;stroke:#0000ff;stroke-width:0.70866144;stroke-miterlimit:4;stroke-dasharray:none;marker:none;visibility:visible;display:inline;overflow:visible;enable-background:accumulate;font-family:Sans;-inkscape-font-specification:Sans"
       d="M 317.625,479.04895 704.9375,721.3927 c -42.15697,52.0138 -106.5521,85.25 -178.84375,85.25 -127.23505,0 -230.0625,-102.8587 -230.0625,-230.09375 0,-34.87795 7.75575,-67.90569 21.59375,-97.5 z"
       id="path3900"
       inkscape:connector-curvature="0" />
    <path
       style="font-size:medium;font-style:normal;font-variant:normal;font-weight:normal;font-stretch:normal;text-indent:0;text-align:start;text-decoration:none;line-height:normal;letter-spacing:normal;word-spacing:normal;text-transform:none;direction:ltr;block-progression:tb;writing-mode:lr-tb;text-anchor:start;baseline-shift:baseline;color:#000000;fill:none;stroke:#0000ff;stroke-width:0.70866144;stroke-miterlimit:4;stroke-dasharray:none;marker:none;visibility:visible;display:inline;overflow:visible;enable-background:accumulate;font-family:Sans;-inkscape-font-specification:Sans"
       d="m 71.1875,845.54895 909.8125,0 0,173.15625 -909.8125,0 0,-173.15625 z"
       id="path3879"
       inkscape:connector-curvature="0" />
  </g>
  <g
     inkscape:groupmode="layer"
     id="layer2"
     inkscape:label="Printed"
     style="display:inline">
    <text
       xml:space="preserve"
       style="font-size:49.85985947px;font-style:normal;font-variant:normal;font-weight:normal;font-stretch:normal;text-align:start;line-height:125%;letter-spacing:0px;word-spacing:0px;text-anchor:start;fill:#000000;fill-opacity:1;stroke:none;display:inline;font-family:Raoul TRANSPORT Britannique;-inkscape-font-specification:Raoul TRANSPORT Britannique"
       x="107.96009"
       y="607.66528"
       id="text3759"
       sodipodi:linespacing="125%"><tspan
         sodipodi:role="line"
         x="107.96009"
         y="607.66528"
         id="tspan3773"
         style="font-size:40px;text-align:start;text-anchor:start;stroke:none">Rule Zero:</tspan><tspan
         id="tspan3808"
         sodipodi:role="line"
         x="107.96009"
         y="688.84314"
         style="font-size:72px;text-align:start;text-anchor:start;stroke:none">Do not be on fire</tspan></text>
    <g
       transform="translate(0,-308.2677)"
       style="display:inline"
       id="g3852">
      <path
         d="m 588.9085,532.4125 c 2.87746,16.63591 10e-4,29.66888 -9.61944,43.54717 -1.80792,-0.39947 -3.6429,-0.80538 -5.44694,-1.20356 -10.45318,-16.26995 9.23673,-22.70526 9.61815,-43.54717 1.80277,0.39818 3.63774,0.8028 5.44823,1.20356"
         style="fill:#e81d24;fill-opacity:1;fill-rule:nonzero;stroke:none"
         id="path22"
         inkscape:connector-curvature="0" />
      <path
         inkscape:connector-curvature="0"
         id="path26"
         transform="translate(0,308.2677)"
         d="m 583.4375,204.4375 c -18.04951,3.47666 -32.59375,44.1875 -32.59375,44.1875 l -14.5,13.9375 c 0,0 -1.30621,0.9437 -3.09375,2.21875 l 45.34375,28.375 c -0.82181,-2.93443 -1.22719,-6.28687 -1.09375,-10.09375 -4.86191,-0.0244 -4.68426,-3.22566 -4.25,-6.625 0.79636,-3.61583 1.60345,-7.26852 2.40625,-10.90625 0.39818,-1.80921 0.81413,-3.60511 1.21875,-5.4375 -10.45318,-16.26866 9.21361,-22.72316 9.59375,-43.5625 1.80405,0.39689 3.66084,0.81928 5.46875,1.21875 -0.0515,-6.22011 -10.03215,-6.10017 -8.5,-13.3125 z m -84.40625,81.78125 c -25.01825,13.64204 -56.46468,26.04321 -73.9375,14.625 -35.84388,22.94492 -51.51135,95.83568 -22.21875,126.4375 60.11066,62.80719 180.43952,19.24939 226.71875,-59.375 L 561.3125,325.1875 c -0.28357,8.85933 -4.5269,18.68452 -10.34375,26.28125 1.01671,14.91304 13.20352,22.78262 34.53125,24.78125 -20.21695,65.57074 -128.1642,92.8679 -172.375,30.4375 4.7919,-91.80865 98.34605,-44.50207 131.4375,-91.96875 l -45.53125,-28.5 z m 149.25,12.5 c -8.12196,6.85929 -25.47408,12.74868 -40.96875,12.40625 l 36.71875,22.96875 c 3.10773,-11.40851 4.63294,-23.25169 4.25,-35.375 z"
         style="fill:#f57515;fill-opacity:1;fill-rule:nonzero;stroke:none" />
      <path
         inkscape:connector-curvature="0"
         id="path30"
         transform="translate(0,308.2677)"
         d="m 590.0625,197.9375 -7.59375,1.46875 c -9.04731,1.7422 -17.99616,10.4652 -26.59375,25.9375 -4.93149,8.87592 -8.28806,17.34291 -9.4375,20.375 L 533,258.625 c -0.56936,0.41895 -2.16666,1.60967 -4.46875,3.21875 l 4.71875,2.9375 c 1.93449,-1.37675 3.09375,-2.21875 3.09375,-2.21875 l 14.5,-13.9375 c 0,0 14.54424,-40.71084 32.59375,-44.1875 -1.53344,7.21233 8.44845,7.09239 8.5,13.3125 -1.80792,-0.39947 -3.66598,-0.82186 -5.46875,-1.21875 -0.38013,20.83934 -20.04693,27.29384 -9.59375,43.5625 -0.40463,1.83239 -0.82057,3.62829 -1.21875,5.4375 -0.80409,3.63773 -1.60861,7.2917 -2.40625,10.90625 -0.43426,3.39934 -0.61062,6.60052 4.25,6.625 -0.13355,3.8113 0.27014,7.15698 1.09375,10.09375 l 8.34375,5.21875 c -3.0834,-3.66168 -4.53664,-8.73519 -4.3125,-15.125 l 0.1875,-5.28125 -4.5625,-0.0312 c 0.0194,-0.19458 0.0355,-0.39176 0.0625,-0.625 l 1.71875,-7.6875 0.65625,-3 0.6875,-3.09375 0.5,-2.34375 0.46875,-2.09375 -1.15625,-1.78125 c -3.99081,-6.2098 -2.30136,-9.49645 2.25,-17 2.81947,-4.64543 6.18884,-10.18329 7.5625,-17.5 l 6.125,1.34375 -0.0625,-6.46875 c -0.0477,-5.5191 -4.08515,-8.35897 -6.5,-10.0625 -0.7126,-0.50256 -1.90239,-1.3428 -2.15625,-1.75 -10e-4,-0.0528 0.0175,-0.17012 0.0625,-0.375 l 1.59375,-7.5625 z m -96.03125,85.15625 c -16.95695,9.0379 -36.38513,17.09375 -51.71875,17.09375 -5.85671,0 -10.70022,-1.23367 -14.40625,-3.65625 l -2.78125,-1.8125 -2.8125,1.78125 c -20.05458,12.83838 -35.40447,41.09245 -39.09375,71.96875 -3.08621,25.83527 2.72671,48.57403 15.9375,62.375 19.77367,20.66152 46.97328,31.5625 78.65625,31.5625 45.50714,0 95.77112,-22.66582 131.15625,-59.1875 9.89727,-10.21435 18.2623,-21.1264 25,-32.5625 l -4.375,-2.71875 c -30.90292,52.4932 -94.81971,89.34375 -151.78125,89.34375 -28.34161,0 -54.96668,-9.13488 -74.9375,-30 -29.29389,-30.60182 -13.62642,-103.49258 22.21875,-126.4375 4.81938,3.15064 10.6984,4.46875 17.21875,4.46875 17.1179,0 38.60036,-9.21369 56.71875,-19.09375 l -5,-3.125 z m 159.03125,4.84375 -8.09375,6.84375 c -8.33599,7.04094 -25.04299,11.25 -36.375,11.25 -3.64187,0 -8.01165,-0.38624 -12.125,-1.6875 l 10.8125,6.78125 c 0.43873,0.01 0.87102,0.0312 1.3125,0.0312 15.15659,0 31.79092,-5.76767 39.6875,-12.4375 0.38312,12.12535 -1.14175,23.96495 -4.25,35.375 -0.003,0.01 0.003,0.0215 0,0.0312 l 4.53125,2.8125 c 3.61619,-12.67686 5.25127,-25.54279 4.84375,-38.40625 L 653.0625,287.9375 z m -108.5,26.78125 c -33.09132,47.46668 -126.6456,0.1601 -131.4375,91.96875 17.32532,24.46548 44.43382,35.15625 72.21875,35.15625 43.10904,0 87.86166,-25.72168 100.15625,-65.59375 -21.32772,-1.99863 -33.51454,-9.86821 -34.53125,-24.78125 5.81619,-7.59673 10.06018,-17.42192 10.34375,-26.28125 l -5.25,-3.28125 c 0.83881,7.66777 -2.63946,17.92765 -9.15625,26.4375 l -1.1875,1.5625 0.125,1.90625 c 0.60822,8.9352 4.5744,16.03855 11.8125,21.09375 5.28587,3.69057 12.1521,6.2114 20.84375,7.625 -2.81173,6.89147 -6.74506,13.4152 -11.75,19.5 -6.12733,7.45201 -13.71976,14.06982 -22.53125,19.625 -17.44902,10.99955 -38.35136,17.0625 -58.875,17.0625 -28.14961,0 -51.84953,-11.20638 -66.96875,-31.5625 1.46257,-22.06868 8.33077,-36.50133 21.53125,-45.34375 12.26109,-8.21487 28.33318,-10.75849 45.375,-13.4375 13.43243,-2.11203 27.35037,-4.26858 39.4375,-9.53125 10.39799,-4.5296 18.37994,-10.94588 24.21875,-19.40625 l -4.375,-2.71875 z"
         style="fill:#fbc707;fill-opacity:1;fill-rule:nonzero;stroke:none" />
      <path
         d="m 571.40536,372.18678 c 12.19151,63.16878 -57.03243,62.01418 -65.78594,116.82635 -43.5098,-59.53362 37.3567,-83.90504 65.78594,-116.82635"
         style="fill:#e81d24;fill-opacity:1;fill-rule:nonzero;stroke:none"
         id="path34"
         inkscape:connector-curvature="0" />
      <path
         inkscape:connector-curvature="0"
         id="path38"
         transform="translate(0,308.2677)"
         d="M 647.71875,74.78125 C 577.16383,84.067327 533.25,217.5625 533.25,217.5625 l -9.0625,15.125 c 0,0 -6.28262,8.40216 -14.8125,17.1875 l 26.90625,16.8125 c 1.32038,-1.54016 2.70052,-3.24878 3.6875,-3.03125 2.2731,-6.20077 -0.64471,-15.9581 5.9375,-15.4375 5.29359,-23.42944 16.45049,-33.89963 34.5,-37.375 -1.53344,7.21104 8.44588,7.0924 8.5,13.3125 2.87746,16.63591 -0.005,29.65296 -9.625,43.53125 -1.80792,-0.39947 -3.63345,-0.78803 -5.4375,-1.1875 -0.40462,1.83369 -0.7919,3.62958 -1.1875,5.4375 -0.80538,3.63774 -1.63727,7.29171 -2.4375,10.90625 -0.28554,2.24852 -0.44436,4.40509 0.875,5.625 l 0.9375,0.5625 c 0.62556,0.26913 1.39563,0.43253 2.4375,0.4375 -0.0133,0.37994 0.003,0.75411 0,1.125 l 41.71875,26.09375 c 11.76293,-1.85459 22.98858,-6.46371 29.0625,-11.59375 0.30339,9.60502 -0.57273,19.0414 -2.5,28.21875 l 21.84375,13.65625 c 2.63872,-11.94963 5.26751,-23.90325 7.90625,-35.84375 7.15303,-33.45093 -7.4505,-72.9293 20.4375,-92.5625 -31.89041,-8.44037 -26.97021,40.79376 -54.375,39.375 -13.72495,-3.69959 -19.35654,-12.57597 -16.96875,-26.5625 11.88353,-38.76258 57.71514,-25.88386 39.8125,-76.90625 -4.84001,16.88461 -15.92726,23.93771 -33.25,21.21875 -43.68804,-21.33378 -8.77319,-84.315015 23.53125,-98.34375 -1.31348,-0.864606 -2.63648,-1.724478 -3.96875,-2.5625 z M 484.78125,178.3125 c -1.12656,16.60649 -11.33841,30.47793 -23.46875,41.46875 l 18.90625,11.8125 c 12.87914,-16.79416 26.99382,-35.59952 4.5625,-53.28125 z M 428.9375,242.375 c -5.9891,3.42473 -10.33688,5.73166 -11.1875,6.78125 -78.38206,52.05455 -75.19609,185.08439 20.84375,215.9375 83.22069,26.7318 172.63151,-8.06659 213.8125,-82.90625 L 630,368.15625 C 586.53919,450.61947 461.50555,498.11642 399.84375,433.6875 370.54986,403.08567 386.21733,330.16239 422.0625,307.21875 c 24.96835,16.31642 71.66219,17.54956 96.4375,-8.8125 L 428.9375,242.375 z"
         style="fill:#e81d24;fill-opacity:1;fill-rule:nonzero;stroke:none" />
      <path
         inkscape:connector-curvature="0"
         id="path42"
         transform="translate(0,308.2677)"
         d="m 544.5625,314.71875 c -33.09133,47.46669 -126.6456,0.1601 -131.4375,91.96875 44.20951,62.42912 152.15805,35.13324 172.375,-30.4375 -21.32773,-1.99734 -33.51454,-9.86949 -34.53125,-24.78125 5.81619,-7.59672 10.06018,-17.42192 10.34375,-26.28125 l -16.75,-10.46875 z"
         style="fill:#fff201;fill-opacity:1;fill-rule:nonzero;stroke:none" />
      <path
         inkscape:connector-curvature="0"
         id="path46"
         transform="translate(0,308.2677)"
         d="m 511.53125,189.96875 c -16.40654,0 -29.71875,13.31221 -29.71875,29.71875 0,5.80866 1.68066,11.20381 4.5625,15.78125 l 21.9375,13.71875 c 1.05942,0.11438 2.12892,0.1875 3.21875,0.1875 16.40654,0 29.71875,-13.28097 29.71875,-29.6875 0,-16.40654 -13.31221,-29.71875 -29.71875,-29.71875 z"
         style="fill:#231f20;fill-opacity:1;fill-rule:nonzero;stroke:none" />
      <path
         d="m 511.53232,492.52678 c -19.52754,0 -35.41348,15.88723 -35.41348,35.41477 0,19.52626 15.88594,35.41348 35.41348,35.41348 19.52883,0 35.41477,-15.88722 35.41477,-35.41348 0,-19.52754 -15.88594,-35.41477 -35.41477,-35.41477 m 0,5.70853 c 16.40654,0 29.70754,13.29841 29.70754,29.70624 0,16.40654 -13.301,29.70625 -29.70754,29.70625 -16.40654,0 -29.70624,-13.29971 -29.70624,-29.70625 0,-16.40783 13.2997,-29.70624 29.70624,-29.70624"
         style="fill:#ffffff;fill-opacity:1;fill-rule:nonzero;stroke:none"
         id="path50"
         inkscape:connector-curvature="0" />
      <path
         inkscape:connector-curvature="0"
         id="path136"
         transform="translate(0,308.2677)"
         d="m 592.28125,201.9375 c -2.36336,0.15081 -4.9408,1.52151 -6.8125,3.90625 l -39.65625,50.53125 -26,0 L 555.15625,278.5 602,218.84375 c 3.00374,-3.82458 3.10909,-8.74236 0.21875,-11 L 596.125,203.0625 c -1.08147,-0.85 -2.42573,-1.21548 -3.84375,-1.125 z M 403.25,226.28125 c -0.65838,0.52095 -1.21019,1.16374 -1.5625,1.9375 L 398.5,235.25 c -1.52313,3.3465 0.83524,7.67728 5.25,9.6875 l 75.53125,34.3125 0,95.875 -38.15625,32.1875 c -0.28221,0.23066 -0.51805,0.51708 -0.75,0.78125 -2.93415,0.89944 -4.96068,3.7337 -4.6875,6.90625 l 5.71875,65.5625 c 5.43003,2.1631 10.96658,4.12534 16.59375,5.875 l 10.375,-0.90625 c 3.66093,-0.30798 6.34824,-3.53559 6.03125,-7.1875 l -4.53125,-52 40,-33.75 12.875,0 19.96875,55 c 0.61724,1.719 1.87538,3.02065 3.40625,3.75 0.56441,1.01672 1.41371,1.90627 2.5,2.53125 l 52.53125,30.21875 c 6.36134,-2.21146 12.59758,-4.6936 18.6875,-7.4375 l 5.3125,-9.28125 c 1.82209,-3.18157 0.74536,-7.24041 -2.4375,-9.0625 L 571,428.59375 553.25,379.625 l 0,-59.46875 -150,-93.875 z"
         style="fill:#231f20;fill-opacity:1;fill-rule:nonzero;stroke:none" />
      <path
         d="m 592.69817,504.48221 c -4.32843,0 -8.70711,2.28728 -11.71472,6.11831 l -37.94946,48.32016 -62.06573,0 -66.15578,-30.0503 c -2.19192,-0.99609 -4.56811,-1.52185 -6.87214,-1.52313 -5.15443,0 -9.53827,2.59396 -11.43767,6.76776 l -3.20219,7.05512 c -2.86586,6.29355 0.68425,13.86927 8.08472,17.23898 l 72.18774,32.78086 0,89.55557 -36.09774,30.46395 c -0.11082,0.0915 -0.21778,0.18427 -0.32215,0.27834 -4.65187,2.1481 -7.59247,7.07058 -7.14146,12.27913 l 5.75749,66.21633 c 0.55668,6.42757 5.84512,11.2766 12.29975,11.2766 0.35695,0 0.71776,-0.0155 1.07341,-0.0464 l 19.72471,-1.72029 c 3.26791,-0.2719 6.24717,-1.81436 8.37208,-4.33359 2.12878,-2.52824 3.1442,-5.7343 2.85942,-9.03055 l -4.27045,-49.07143 36.13253,-30.48198 6.79869,0 18.59717,51.22726 c 0.89687,2.50376 2.56561,4.61708 4.77428,6.07836 0.98708,1.29376 2.22414,2.38005 3.64032,3.19445 l 57.61231,33.13523 c 1.87363,1.07728 4.00112,1.64684 6.1518,1.64684 4.40833,0 8.51125,-2.3749 10.7109,-6.19691 l 9.87202,-17.16166 c 1.64297,-2.86973 2.07336,-6.19433 1.21644,-9.37075 -0.85821,-3.1893 -2.90839,-5.84898 -5.77425,-7.48938 l -49.89999,-28.70113 -16.70808,-46.05222 0,-95.70352 47.53927,-60.53744 c 2.65196,-3.37873 3.90448,-7.52417 3.43672,-11.37453 -0.37885,-3.11714 -1.87364,-5.83739 -4.20859,-7.65948 l -6.07449,-4.77944 c -1.95482,-1.53731 -4.35549,-2.34913 -6.94688,-2.34913 m 0,5.70724 c 1.26026,0 2.44578,0.36339 3.41867,1.12753 l 6.09125,4.79104 c 2.89163,2.25893 2.79756,7.18785 -0.20618,11.01114 l -48.75829,62.08893 0,98.68149 17.76215,48.95544 51.71822,29.74877 c 3.18286,1.82209 4.26915,5.87734 2.44706,9.05891 l -9.8733,17.16166 c -1.22933,2.14037 -3.46248,3.3362 -5.76265,3.3362 -1.12237,0 -2.2615,-0.28607 -3.30656,-0.88785 l -57.61231,-33.13523 c -1.08629,-0.62497 -1.91745,-1.50638 -2.48185,-2.52438 -1.53216,-0.72806 -2.79757,-2.02826 -3.41481,-3.74726 l -19.95923,-54.98742 -12.88477,0 -39.98933,33.73443 4.52687,52.01976 c 0.31571,3.65191 -2.38005,6.87858 -6.04098,7.18655 l -19.72214,1.71772 c -0.19586,0.0168 -0.38787,0.0258 -0.58116,0.0258 -3.4148,0 -6.31417,-2.60814 -6.61441,-6.06547 l -5.75621,-66.21247 c -0.27447,-3.17255 1.73575,-6.02166 4.6712,-6.92111 0.23066,-0.26416 0.47936,-0.5309 0.76028,-0.76027 l 38.15049,-32.19584 0,-95.88263 -75.5291,-34.30013 c -4.41606,-2.01022 -6.77678,-6.33994 -5.25365,-9.68516 l 3.19961,-7.04997 c 1.00382,-2.20481 3.43542,-3.42512 6.2433,-3.42512 1.45097,0 3.00374,0.32731 4.51141,1.01156 l 67.28073,30.56188 66.07588,0 39.66459,-50.50435 c 1.98575,-2.52825 4.74852,-3.93412 7.22522,-3.93412"
         style="fill:#ffffff;fill-opacity:1;fill-rule:nonzero;stroke:none"
         id="path140"
         inkscape:connector-curvature="0" />
    </g>
    <path
       transform="translate(0,-308.2677)"
       inkscape:connector-curvature="0"
       id="path3906"
       d="m 526.09375,318.11145 c -142.55461,0 -258.40625,115.88289 -258.40625,258.4375 0,109.27226 68.07273,202.87515 164.0625,240.625 l -374.71875,0 a 14.174646,14.174646 0 0 0 -14.1875,14.1875 l 0,201.49995 a 14.174646,14.174646 0 0 0 14.1875,14.1875 l 938.15625,0 a 14.174646,14.174646 0 0 0 14.1563,-14.1875 l 0,-201.49995 a 14.174646,14.174646 0 0 0 -14.1563,-14.1875 l -374.75,0 c 95.99834,-37.74985 164.09375,-131.35274 164.09375,-240.625 0,-142.55461 -115.88289,-258.4375 -258.4375,-258.4375 z"
       style="display:inline;font-size:medium;font-style:normal;font-variant:normal;font-weight:normal;font-stretch:normal;text-indent:0;text-align:start;text-decoration:none;line-height:normal;letter-spacing:normal;word-spacing:normal;text-transform:none;direction:ltr;block-progression:tb;writing-mode:lr-tb;text-anchor:start;baseline-shift:baseline;color:#000000;fill:none;stroke:#000000;stroke-width:1.77165354;stroke-miterlimit:4;stroke-dasharray:none;marker:none;visibility:visible;overflow:visible;enable-background:accumulate;font-family:Sans;-inkscape-font-specification:Sans" />
  </g>
  <g
     inkscape:groupmode="layer"
     id="layer3"
     inkscape:label="Visual"
     style="display:inline">
    <path
       transform="translate(0,-308.2677)"
       style="font-size:medium;font-style:normal;font-variant:normal;font-weight:normal;font-stretch:normal;text-indent:0;text-align:start;text-decoration:none;line-height:normal;letter-spacing:normal;word-spacing:normal;text-transform:none;direction:ltr;block-progression:tb;writing-mode:lr-tb;text-anchor:start;baseline-shift:baseline;color:#000000;fill:#1a1a1a;fill-opacity:1;stroke:#ffffff;stroke-width:3.30323148;stroke-miterlimit:4;stroke-dasharray:none;marker:none;visibility:visible;display:inline;overflow:visible;enable-background:accumulate;font-family:Sans;-inkscape-font-specification:Sans"
       d="m 526.09375,318.11145 c -142.55461,0 -258.40625,115.88289 -258.40625,258.4375 0,142.55461 115.85164,258.4375 258.40625,258.4375 142.55461,0 258.4375,-115.88289 258.4375,-258.4375 0,-142.55461 -115.88289,-258.4375 -258.4375,-258.4375 z m 0,28.375 c 127.23505,0 230.09375,102.82745 230.09375,230.0625 0,43.05136 -11.80118,83.28986 -32.3125,117.71875 L 333.75,450.17395 C 374.842,387.6758 445.56534,346.48645 526.09375,346.48645 z M 317.625,479.04895 704.9375,721.3927 c -42.15697,52.0138 -106.5521,85.25 -178.84375,85.25 -127.23505,0 -230.0625,-102.8587 -230.0625,-230.09375 0,-34.87795 7.75575,-67.90569 21.59375,-97.5 z"
       id="path4264"
       inkscape:connector-curvature="0" />
    <rect
       style="fill:none;stroke:#1a1a1a;stroke-width:28.34645653;stroke-linecap:round;stroke-linejoin:round;stroke-miterlimit:4;stroke-opacity:1;stroke-dasharray:none;stroke-dashoffset:0.21259842;display:inline"
       id="rect3790"
       width="938.16272"
       height="201.51073"
       x="57.019352"
       y="523.09418" />
  </g>
</svg>
