<?xml version="1.0" encoding="UTF-8" standalone="no"?>
<!-- Created with Inkscape (http://www.inkscape.org/) -->

<svg
   xmlns:dc="http://purl.org/dc/elements/1.1/"
   xmlns:cc="http://creativecommons.org/ns#"
   xmlns:rdf="http://www.w3.org/1999/02/22-rdf-syntax-ns#"
   xmlns:svg="http://www.w3.org/2000/svg"
   xmlns="http://www.w3.org/2000/svg"
   xmlns:sodipodi="http://sodipodi.sourceforge.net/DTD/sodipodi-0.dtd"
   xmlns:inkscape="http://www.inkscape.org/namespaces/inkscape"
   width="1052.3622"
   height="744.09448"
   id="svg2"
   version="1.1"
   inkscape:version="0.48.4 r9939"
   sodipodi:docname="Disallowed_Sign.svg">
  <defs
     id="defs4" />
  <sodipodi:namedview
     id="base"
     pagecolor="#ffffff"
     bordercolor="#666666"
     borderopacity="1.0"
     inkscape:pageopacity="0.0"
     inkscape:pageshadow="2"
     inkscape:zoom="0.67598942"
     inkscape:cx="526.18109"
     inkscape:cy="372.04724"
     inkscape:document-units="mm"
     inkscape:current-layer="layer1"
     showgrid="false"
     inkscape:window-width="1366"
     inkscape:window-height="702"
     inkscape:window-x="0"
     inkscape:window-y="27"
     inkscape:window-maximized="1"
     showguides="true"
     inkscape:guide-bbox="true"
     inkscape:snap-global="false"
     inkscape:object-nodes="true"
     units="mm" />
  <metadata
     id="metadata7">
    <rdf:RDF>
      <cc:Work
         rdf:about="">
        <dc:format>image/svg+xml</dc:format>
        <dc:type
           rdf:resource="http://purl.org/dc/dcmitype/StillImage" />
        <dc:title />
      </cc:Work>
    </rdf:RDF>
  </metadata>
  <g
     inkscape:label="Layer 1"
     inkscape:groupmode="layer"
     id="layer1"
     transform="translate(0,-308.2677)">
    <g
       id="g3020"
       transform="matrix(1.0308852,0,0,1.0308852,-357.0035,31.502165)">
      <path
         d="m 917.57259,485.90312 c 2.79125,16.1375 10e-4,28.78 -9.33125,42.2425 -1.75375,-0.3875 -3.53375,-0.78125 -5.28375,-1.1675 -10.14,-15.7825 8.96,-22.02501 9.33,-42.2425 1.74875,0.38625 3.52875,0.77875 5.285,1.1675"
         style="fill:#e81d24;fill-opacity:1;fill-rule:nonzero;stroke:none"
         id="path22"
         inkscape:connector-curvature="0" />
      <path
         d="m 747.06359,662.98199 c 4.9175,-94.215 106.21625,-37.3825 132.47375,-98.16375 17.4125,7.94375 12.15625,30.335 1.2325,44.60125 0.98625,14.46625 12.79375,22.07875 33.4825,24.0175 -19.61125,63.60625 -124.3025,90.105 -167.18875,29.545 m 228.09875,-104.7525 c -16.16125,13.64875 -70.0125,23.49625 -68.6575,-15.16 -4.71625,-0.0237 -4.53625,-3.1525 -4.115,-6.45 0.7725,-3.5075 1.55375,-7.03875 2.3325,-10.5675 0.38625,-1.755 0.77375,-3.50625 1.16625,-5.28375 -10.14,-15.78125 8.96125,-22.02625 9.33,-42.24125 1.75,0.385 3.5275,0.77875 5.28125,1.16625 -0.05,-6.03375 -9.72125,-5.90625 -8.235,-12.9025 -17.50875,3.3725 -31.63,42.8575 -31.63,42.8575 l -14.065,13.51875 c 0,0 -76.8075,57.44875 -107.91,37.12375 -34.77,22.2575 -49.9625,92.97625 -21.5475,122.66125 73.8975,77.2125 241.63375,-11.2675 238.05,-124.7225"
         style="fill:#f57515;fill-opacity:1;fill-rule:nonzero;stroke:none"
         id="path26"
         inkscape:connector-curvature="0" />
      <path
         d="m 752.14284,661.49949 c 1.41875,-21.4075 8.0775,-35.41375 20.8825,-43.99125 11.89375,-7.96875 27.5075,-10.42375 44.03875,-13.0225 13.03,-2.04875 26.50625,-4.1675 38.23125,-9.2725 11.825,-5.15125 20.46625,-12.77625 26.2625,-23.21875 1.87,1.7125 3.115,3.8575 3.76875,6.47625 1.8925,7.57875 -1.5275,18.79875 -8.5125,27.92 l -1.1425,1.4925 0.1275,1.87625 c 0.59,8.6675 4.45,15.54875 11.47125,20.4525 5.1275,3.58 11.77625,6.01625 20.2075,7.3875 -2.7275,6.685 -6.5475,13.03 -11.4025,18.9325 -5.94375,7.22875 -13.2925,13.625 -21.84,19.01375 -16.92625,10.67 -37.2125,16.5475 -57.12125,16.5475 -27.30625,0 -50.305,-10.8475 -64.97125,-30.59375 m 166.5575,-201.02375 -7.37875,1.4225 c -8.77625,1.69 -17.45375,10.1575 -25.79375,25.16625 -4.78375,8.61 -8.0525,16.84 -9.1675,19.78125 l -13.01125,12.50625 c -3.94625,2.90375 -55.45375,40.30875 -87.9825,40.30875 -5.68125,0 -10.385,-1.19125 -13.98,-3.54125 l -2.69875,-1.7625 -2.715,1.73625 c -19.45375,12.45375 -34.335,39.8525 -37.91375,69.80375 -2.99375,25.06125 2.63875,47.1125 15.45375,60.5 19.18125,20.0425 45.565,30.63625 76.29875,30.63625 44.14375,0 92.89,-22.0075 127.215,-57.435 13.85125,-14.295 24.615,-29.97375 31.99625,-46.6025 7.96375,-17.94 11.705,-36.41875 11.11875,-54.92375 l -0.32375,-10.29625 -7.87,6.64625 c -8.08625,6.83 -24.2875,10.91 -35.28,10.91 -6.34375,0 -15.01375,-1.15 -20.30375,-6.62875 -3.47125,-3.595 -5.11375,-8.79625 -4.88,-15.46 l 0.18,-5.13125 -4.42875,-0.0225 c 0.0188,-0.18875 0.0425,-0.39625 0.0687,-0.6225 l 1.6425,-7.4375 0.64125,-2.90375 0.66625,-3.02125 0.5,-2.26375 0.44625,-2.0225 -1.12,-1.74375 c -3.87125,-6.02375 -2.23375,-9.2175 2.18125,-16.49625 2.735,-4.50625 5.99875,-9.885 7.33125,-16.9825 l 5.9425,1.315 -0.0513,-6.25875 c -0.0463,-5.35375 -3.96875,-8.11875 -6.31125,-9.77125 -0.69125,-0.4875 -1.83375,-1.29375 -2.08,-1.68875 -0.001,-0.0512 0.004,-0.1675 0.0475,-0.36625 l 1.56,-7.35 z m -101.58625,236.6 c 41.8175,0 85.2125,-24.96125 97.13875,-63.63875 -20.68875,-1.93875 -32.49625,-9.55125 -33.4825,-24.0175 10.9225,-14.26625 16.18,-36.6575 -1.23375,-44.60125 -26.2575,60.78125 -127.555,3.94875 -132.4725,98.16375 16.80625,23.7325 43.0975,34.09375 70.05,34.09375 m 95.15125,-230.285 c -1.4875,6.99625 8.185,6.86875 8.235,12.9025 -1.75375,-0.3875 -3.5325,-0.78125 -5.28125,-1.16625 -0.36875,20.215 -19.47125,26.46 -9.33125,42.24125 -0.3925,1.7775 -0.77875,3.52875 -1.165,5.28375 -0.78,3.52875 -1.56,7.06125 -2.33375,10.5675 -0.42125,3.2975 -0.6,6.42625 4.115,6.45 -0.7125,20.33375 13.84625,27.245 30.16375,27.245 14.7025,0 30.83375,-5.615 38.49375,-12.085 2.645,83.7125 -87.9675,153.82125 -165.35,153.82125 -27.4925,0 -53.32625,-8.85875 -72.69875,-29.09875 -28.41625,-29.685 -13.22375,-100.40375 21.5475,-122.66125 4.675,3.05625 10.38125,4.35375 16.70625,4.35375 35.75,0 91.20375,-41.4775 91.20375,-41.4775 l 14.065,-13.51875 c 0,0 14.12125,-39.485 31.63,-42.8575"
         style="fill:#fbc707;fill-opacity:1;fill-rule:nonzero;stroke:none"
         id="path30"
         inkscape:connector-curvature="0" />
      <path
         d="m 900.59384,330.47774 c 11.82625,61.27625 -55.32375,60.15625 -63.815,113.32625 -42.20625,-57.75 36.2375,-81.39125 63.815,-113.32625"
         style="fill:#e81d24;fill-opacity:1;fill-rule:nonzero;stroke:none"
         id="path34"
         inkscape:connector-curvature="0" />
      <path
         d="m 734.18271,689.16187 c -28.41625,-29.685 -13.22375,-100.40375 21.5475,-122.66 31.1025,20.325 96.94626,16.4875 107.90876,-37.125 1.75125,0.38875 4.69875,-5.5225 6.45125,-5.13625 2.205,-6.015 -0.62125,-15.49375 5.76375,-14.98875 5.135,-22.7275 15.9725,-32.87875 33.48125,-36.25 -1.4875,6.995 8.185,6.8675 8.2375,12.90125 2.79125,16.1375 10e-4,28.78 -9.33125,42.2425 -1.75375,-0.3875 -3.53375,-0.78 -5.28375,-1.1675 -0.3925,1.77875 -0.78,3.53 -1.16375,5.28375 -0.78125,3.52875 -1.56,7.06125 -2.33625,10.5675 -0.41875,3.2975 -0.6,6.42625 4.1175,6.44875 -1.355,38.6575 52.4975,28.81 68.6575,15.16125 3.58375,113.45875 -164.1525,201.93622 -238.05001,124.7225 m 231.56001,-170.485 c -13.31375,-3.58875 -18.78875,-12.205 -16.4725,-25.7725 11.5275,-37.60125 56.00378,-25.0925 38.6375,-74.58626 -4.695,16.37875 -15.44875,23.22126 -32.2525,20.58376 -46.93125,-22.91751 -0.36125,-95.41001 32.73375,-98.05376 -76.44125,-8.34125 -124.82125,138.67126 -124.82125,138.67126 l -8.77875,14.6575 c 0,0 -43.24375,57.82 -55.71875,26.4825 -5.43626,-20.56501 52.86875,-51.34126 17.495,-79.225 -2.75875,40.66625 -61.63626,64.5575 -65.01876,68.73124 -76.03375,50.495 -72.95,179.5275 20.2125,209.45625 86.48001,27.77875 179.86001,-12.92125 215.22251,-96.51124 3.8925,-17.60501 7.78,-35.23501 11.67,-52.8375 6.93873,-32.44875 -7.22125,-70.74626 19.83123,-89.79125 -30.93498,-8.1875 -26.15623,39.57124 -52.73998,38.19499"
         style="fill:#e81d24;fill-opacity:1;fill-rule:nonzero;stroke:none"
         id="path38"
         inkscape:connector-curvature="0" />
      <path
         d="m 880.77022,609.41999 c 0.98625,14.465 12.79375,22.07875 33.4825,24.01625 -19.61125,63.60625 -124.30376,90.105 -167.18876,29.54625 4.9175,-94.215 106.21501,-37.3825 132.47251,-98.16375 17.41375,7.94375 12.15625,30.335 1.23375,44.60125"
         style="fill:#fff201;fill-opacity:1;fill-rule:nonzero;stroke:none"
         id="path42"
         inkscape:connector-curvature="0" />
      <path
         d="m 871.33234,481.56599 c 0,15.915 -12.9025,28.81625 -28.8175,28.81625 -15.915,0 -28.81625,-12.90125 -28.81625,-28.81625 0,-15.915 12.90125,-28.81625 28.81625,-28.81625 15.915,0 28.8175,12.90125 28.8175,28.81625"
         style="fill:#231f20;fill-opacity:1;fill-rule:nonzero;stroke:none"
         id="path46"
         inkscape:connector-curvature="0" />
      <path
         d="m 842.51459,447.21237 c -18.9425,0 -34.3525,15.41125 -34.3525,34.35375 0,18.94125 15.41,34.3525 34.3525,34.3525 18.94375,0 34.35375,-15.41125 34.35375,-34.3525 0,-18.9425 -15.41,-34.35375 -34.35375,-34.35375 m 0,5.5375 c 15.915,0 28.8175,12.9 28.8175,28.81625 0,15.915 -12.9025,28.81625 -28.8175,28.81625 -15.915,0 -28.81625,-12.90125 -28.81625,-28.81625 0,-15.91625 12.90125,-28.81625 28.81625,-28.81625"
         style="fill:#ffffff;fill-opacity:1;fill-rule:nonzero;stroke:none"
         id="path50"
         inkscape:connector-curvature="0" />
      <path
         d="m 950.37534,713.06812 -50.16875,-28.85625 -17.23,-47.49 0,-95.72375 47.2975,-60.22875 c 2.91375,-3.71 3.00375,-8.49125 0.2,-10.68125 l -5.90875,-4.64875 c -2.7975,-2.19876 -7.42,-0.97751 -10.325,2.72375 l -38.47625,48.99 -64.09625,0 -65.265,-29.645 c -4.29125,-1.95001 -8.955,-0.905 -10.4325,2.34 l -3.10375,6.83875 c -1.4775,3.24624 0.8125,7.445 5.095,9.395 l 73.2675,33.2725 0,93.01 -37.0075,31.23125 c -0.27375,0.22375 -0.51375,0.48125 -0.73875,0.7375 -2.84625,0.8725 -4.79625,3.63625 -4.53125,6.71375 l 5.585,64.23 c 0.3075,3.54375 3.42875,6.16625 6.98,5.85875 l 19.13125,-1.6675 c 3.55125,-0.29875 6.16625,-3.42875 5.85875,-6.97125 l -4.39,-50.46125 38.79125,-32.7225 12.4975,0 19.3625,53.33875 c 0.59875,1.6675 1.82625,2.92875 3.31125,3.63625 0.5475,0.98625 1.35375,1.84125 2.4075,2.4475 l 55.8875,32.14375 c 3.0875,1.775 7.02125,0.7125 8.7975,-2.375 l 9.5775,-16.64875 c 1.7675,-3.08625 0.71375,-7.02 -2.37375,-8.7875"
         style="fill:#231f20;fill-opacity:1;fill-rule:nonzero;stroke:none"
         id="path136"
         inkscape:connector-curvature="0" />
      <path
         d="m 921.24872,458.80962 c -4.19875,0 -8.44625,2.21875 -11.36375,5.935 l -36.8125,46.8725 -60.20625,0 -64.17376,-29.15 c -2.12625,-0.96625 -4.43125,-1.47625 -6.66625,-1.4775 -5,0 -9.2525,2.51625 -11.095,6.565 l -3.10625,6.84375 c -2.78,6.105 0.66375,13.45375 7.8425,16.7225 l 70.02501,31.79875 0,86.8725 -35.01626,29.55125 c -0.1075,0.0888 -0.21125,0.17875 -0.3125,0.27 -4.5125,2.08375 -7.365,6.85875 -6.9275,11.91125 l 5.585,64.2325 c 0.54,6.235 5.67,10.93875 11.93125,10.93875 0.34625,0 0.69625,-0.015 1.04125,-0.045 l 19.13376,-1.66875 c 3.17,-0.26375 6.06,-1.76 8.12125,-4.20375 2.065,-2.4525 3.05,-5.5625 2.77375,-8.76 l -4.1425,-47.60125 35.05,-29.56875 6.595,0 18.04,49.6925 c 0.87,2.42875 2.48875,4.47875 4.63125,5.89625 0.9575,1.255 2.1575,2.30875 3.53125,3.09875 l 55.88625,32.1425 c 1.8175,1.045 3.88125,1.5975 5.9675,1.5975 4.27625,0 8.25625,-2.30375 10.39,-6.01125 l 9.57625,-16.6475 c 1.59375,-2.78375 2.01125,-6.00875 1.18,-9.09 -0.8325,-3.09375 -2.82125,-5.67375 -5.60125,-7.265 l -48.405,-27.84125 -16.2075,-44.6725 0,-92.83625 46.115,-58.72375 c 2.5725,-3.2775 3.7875,-7.29875 3.33375,-11.03375 -0.3675,-3.02375 -1.8175,-5.6625 -4.0825,-7.43 l -5.8925,-4.63625 c -1.89625,-1.49125 -4.225,-2.27875 -6.73875,-2.27875 m 0,5.53625 c 1.2225,0 2.3725,0.3525 3.31625,1.09375 l 5.90875,4.6475 c 2.805,2.19125 2.71375,6.9725 -0.2,10.68125 l -47.2975,60.22875 0,95.725 17.23,47.48875 50.16875,28.8575 c 3.0875,1.7675 4.14125,5.70125 2.37375,8.7875 l -9.5775,16.6475 c -1.1925,2.07625 -3.35875,3.23625 -5.59,3.23625 -1.08875,0 -2.19375,-0.2775 -3.2075,-0.86125 l -55.88625,-32.1425 c -1.05375,-0.60625 -1.86,-1.46125 -2.4075,-2.44875 -1.48625,-0.70625 -2.71375,-1.9675 -3.3125,-3.635 l -19.36125,-53.34 -12.49875,0 -38.79125,32.72375 4.39125,50.46125 c 0.30625,3.5425 -2.30875,6.6725 -5.86,6.97125 l -19.13126,1.66625 c -0.19,0.0163 -0.37625,0.025 -0.56375,0.025 -3.3125,0 -6.125,-2.53 -6.41625,-5.88375 l -5.58375,-64.22875 c -0.26625,-3.0775 1.68375,-5.84125 4.53125,-6.71375 0.22375,-0.25625 0.465,-0.515 0.7375,-0.7375 l 37.00751,-31.23125 0,-93.01 -73.26626,-33.2725 c -4.28375,-1.95 -6.57375,-6.15 -5.09625,-9.395 l 3.10375,-6.83875 c 0.97375,-2.13875 3.3325,-3.3225 6.05625,-3.3225 1.4075,0 2.91375,0.3175 4.37625,0.98125 l 65.26501,29.64625 64.09625,0 38.47625,-48.99125 c 1.92625,-2.4525 4.60625,-3.81625 7.00875,-3.81625"
         style="fill:#ffffff;fill-opacity:1;fill-rule:nonzero;stroke:none"
         id="path140"
         inkscape:connector-curvature="0" />
    </g>
    <path
       style="font-size:medium;font-style:normal;font-variant:normal;font-weight:normal;font-stretch:normal;text-indent:0;text-align:start;text-decoration:none;line-height:normal;letter-spacing:normal;word-spacing:normal;text-transform:none;direction:ltr;block-progression:tb;writing-mode:lr-tb;text-anchor:start;baseline-shift:baseline;color:#000000;fill:#1a1a1a;fill-opacity:1;stroke:#ffffff;stroke-width:3.30323148;stroke-miterlimit:4;stroke-dasharray:none;marker:none;visibility:visible;display:inline;overflow:visible;enable-background:accumulate;font-family:Sans;-inkscape-font-specification:Sans"
       d="m 526.09375,318.11145 c -142.55461,0 -258.40625,115.88289 -258.40625,258.4375 0,142.55461 115.85164,258.4375 258.40625,258.4375 142.55461,0 258.4375,-115.88289 258.4375,-258.4375 0,-142.55461 -115.88289,-258.4375 -258.4375,-258.4375 z m 0,28.375 c 127.23505,0 230.09375,102.82745 230.09375,230.0625 0,43.05136 -11.80118,83.28986 -32.3125,117.71875 L 333.75,450.17395 C 374.842,387.6758 445.56534,346.48645 526.09375,346.48645 z M 317.625,479.04895 704.9375,721.3927 c -42.15697,52.0138 -106.5521,85.25 -178.84375,85.25 -127.23505,0 -230.0625,-102.8587 -230.0625,-230.09375 0,-34.87795 7.75575,-67.90569 21.59375,-97.5 z"
       id="path4264"
       inkscape:connector-curvature="0" />
    <g
       id="g4211"
       transform="translate(148.00002,97.68902)"
       style="stroke:#1a1a1a">
      <rect
         y="733.67285"
         x="-90.980667"
         height="201.51073"
         width="938.16272"
         id="rect3790"
         style="fill:#ffffff;stroke:#1a1a1a;stroke-width:28.34645653;stroke-linecap:round;stroke-linejoin:round;stroke-miterlimit:4;stroke-opacity:1;stroke-dasharray:none;stroke-dashoffset:0.21259842" />
      <text
         sodipodi:linespacing="125%"
         id="text3759"
         y="818.24396"
         x="-40.039932"
         style="font-size:49.85985947px;font-style:normal;font-variant:normal;font-weight:normal;font-stretch:normal;text-align:start;line-height:125%;letter-spacing:0px;word-spacing:0px;text-anchor:start;fill:#000000;fill-opacity:1;stroke:none;font-family:Raoul TRANSPORT Britannique;-inkscape-font-specification:Raoul TRANSPORT Britannique"
         xml:space="preserve"><tspan
           style="font-size:40px;text-align:start;text-anchor:start;stroke:none"
           id="tspan3773"
           y="818.24396"
           x="-40.039932"
           sodipodi:role="line">Rule Zero:</tspan><tspan
           style="font-size:72px;text-align:start;text-anchor:start;stroke:none"
           y="899.42181"
           x="-40.039932"
           sodipodi:role="line"
           id="tspan3808">Do not be on fire</tspan></text>
    </g>
  </g>
</svg>
