<?xml version="1.0" encoding="UTF-8" standalone="no"?>
<!-- Created with Inkscape (http://www.inkscape.org/) -->

<svg
   xmlns:dc="http://purl.org/dc/elements/1.1/"
   xmlns:cc="http://creativecommons.org/ns#"
   xmlns:rdf="http://www.w3.org/1999/02/22-rdf-syntax-ns#"
   xmlns:svg="http://www.w3.org/2000/svg"
   xmlns="http://www.w3.org/2000/svg"
   xmlns:sodipodi="http://sodipodi.sourceforge.net/DTD/sodipodi-0.dtd"
   xmlns:inkscape="http://www.inkscape.org/namespaces/inkscape"
   width="744.09448819"
   height="1052.3622047"
   id="svg2"
   version="1.1"
   inkscape:version="0.48.4 r9939"
   sodipodi:docname="Warning_Sign.svg">
  <defs
     id="defs4" />
  <sodipodi:namedview
     id="base"
     pagecolor="#ffffff"
     bordercolor="#666666"
     borderopacity="1.0"
     inkscape:pageopacity="0.0"
     inkscape:pageshadow="2"
     inkscape:zoom="0.94877777"
     inkscape:cx="353.27672"
     inkscape:cy="634.92212"
     inkscape:document-units="mm"
     inkscape:current-layer="layer2"
     showgrid="false"
     inkscape:window-width="1366"
     inkscape:window-height="702"
     inkscape:window-x="0"
     inkscape:window-y="27"
     inkscape:window-maximized="1"
     inkscape:object-nodes="true" />
  <metadata
     id="metadata7">
    <rdf:RDF>
      <cc:Work
         rdf:about="">
        <dc:format>image/svg+xml</dc:format>
        <dc:type
           rdf:resource="http://purl.org/dc/dcmitype/StillImage" />
        <dc:title></dc:title>
      </cc:Work>
    </rdf:RDF>
  </metadata>
  <g
     inkscape:label="Printed"
     inkscape:groupmode="layer"
     id="layer1"
     style="display:inline">
    <text
       xml:space="preserve"
       style="font-size:417.18978882px;font-style:normal;font-variant:normal;font-weight:normal;font-stretch:normal;text-align:center;line-height:125%;letter-spacing:0px;word-spacing:0px;text-anchor:middle;fill:#000000;fill-opacity:1;stroke:none;font-family:Rachana;-inkscape-font-specification:Rachana"
       x="349.09256"
       y="465.08017"
       id="text3759"
       sodipodi:linespacing="125%"><tspan
         sodipodi:role="line"
         x="349.09256"
         y="465.08017"
         id="tspan3773"
         style="font-size:297.9927063px;font-style:normal;font-variant:normal;font-weight:normal;font-stretch:normal;font-family:Rachana;-inkscape-font-specification:Rachana">!</tspan></text>
    <text
       sodipodi:linespacing="125%"
       id="text3020"
       y="621.92181"
       x="356.03577"
       style="font-size:56px;font-style:normal;font-variant:normal;font-weight:normal;font-stretch:normal;text-align:center;line-height:125%;letter-spacing:0px;word-spacing:0px;text-anchor:middle;fill:#000000;fill-opacity:1;stroke:none;font-family:Raoul TRANSPORT Britannique;-inkscape-font-specification:Raoul TRANSPORT Britannique"
       xml:space="preserve"><tspan
         style="font-size:72px"
         id="tspan3022"
         y="621.92181"
         x="356.03577"
         sodipodi:role="line">Warning</tspan></text>
    <path
       style="font-size:medium;font-style:normal;font-variant:normal;font-weight:normal;font-stretch:normal;text-indent:0;text-align:start;text-decoration:none;line-height:normal;letter-spacing:normal;word-spacing:normal;text-transform:none;direction:ltr;block-progression:tb;writing-mode:lr-tb;text-anchor:start;baseline-shift:baseline;color:#000000;fill:none;stroke:#cccccc;stroke-width:0.88582677;stroke-miterlimit:4;stroke-dasharray:none;marker:none;visibility:visible;display:inline;overflow:visible;enable-background:accumulate;font-family:Sans;-inkscape-font-specification:Sans"
       d="m 354.4375,152.375 a 14.174646,14.174646 0 0 0 -12.09375,6.59375 L 119.1875,513.03125 a 14.174646,14.174646 0 0 0 -0.125,0.15625 L 119,513.3125 a 14.174646,14.174646 0 0 0 -0.625,1.09375 14.174646,14.174646 0 0 0 -0.0625,0.15625 14.174646,14.174646 0 0 0 -0.5625,1.28125 14.174646,14.174646 0 0 0 -0.4375,1.3125 14.174646,14.174646 0 0 0 -0.125,0.59375 14.174646,14.174646 0 0 0 -0.15625,0.71875 14.174646,14.174646 0 0 0 -0.0937,0.59375 14.174646,14.174646 0 0 0 -0.0937,0.78125 14.174646,14.174646 0 0 0 0,0.15625 14.174646,14.174646 0 0 0 -0.0312,0.875 l 0,147.46875 A 14.174646,14.174646 0 0 0 131,682.53125 l 446.65625,0 a 14.174646,14.174646 0 0 0 14.1875,-14.1875 l 0,-147.46875 a 14.174646,14.174646 0 0 0 -0.0312,-0.4375 14.174646,14.174646 0 0 0 -0.0937,-1.34375 14.174646,14.174646 0 0 0 0,-0.0625 14.174646,14.174646 0 0 0 -0.15625,-0.96875 14.174646,14.174646 0 0 0 -0.0937,-0.4375 14.174646,14.174646 0 0 0 -0.0937,-0.3125 14.174646,14.174646 0 0 0 -0.3125,-1.03125 14.174646,14.174646 0 0 0 -0.53125,-1.3125 14.174646,14.174646 0 0 0 -0.5625,-1.15625 14.174646,14.174646 0 0 0 -0.0625,-0.125 14.174646,14.174646 0 0 0 -0.25,-0.375 14.174646,14.174646 0 0 0 -0.28125,-0.4375 L 366.3125,158.96875 a 14.174646,14.174646 0 0 0 -11.875,-6.59375 z"
       id="path3804"
       inkscape:connector-curvature="0" />
  </g>
  <g
     inkscape:groupmode="layer"
     id="layer2"
     inkscape:label="Visual Only"
     style="display:inline">
    <path
       style="fill:none;stroke:#000000;stroke-width:28.34645653;stroke-linecap:butt;stroke-linejoin:round;stroke-miterlimit:4;stroke-opacity:1;stroke-dasharray:none"
       d="m 354.33071,166.53541 -223.32986,354.33071 446.65971,0 z"
       id="path2989"
       inkscape:connector-curvature="0"
       sodipodi:nodetypes="cccc" />
    <rect
       style="fill:none;stroke:#000000;stroke-width:28.34645653;stroke-linecap:round;stroke-linejoin:round;stroke-miterlimit:4;stroke-opacity:1;stroke-dasharray:none;stroke-dashoffset:0.21259842"
       id="rect3024"
       width="446.6597"
       height="147.47856"
       x="131.00085"
       y="520.86615" />
    <path
       sodipodi:nodetypes="cccc"
       inkscape:connector-curvature="0"
       id="path3760"
       d="m 354.33071,166.53541 -223.32986,354.33071 446.65971,0 z"
       style="fill:none;stroke:#1a1a1a;stroke-width:28.34645653;stroke-linecap:butt;stroke-linejoin:round;stroke-miterlimit:4;stroke-opacity:1;stroke-dasharray:none" />
    <rect
       y="520.86615"
       x="131.00085"
       height="147.47856"
       width="446.6597"
       id="rect3762"
       style="fill:none;stroke:#1a1a1a;stroke-width:28.34645653;stroke-linecap:round;stroke-linejoin:round;stroke-miterlimit:4;stroke-opacity:1;stroke-dasharray:none;stroke-dashoffset:0.21259842" />
  </g>
  <g
     inkscape:groupmode="layer"
     id="layer3"
     inkscape:label="Laser"
     style="display:none">
    <path
       style="font-size:medium;font-style:normal;font-variant:normal;font-weight:normal;font-stretch:normal;text-indent:0;text-align:start;text-decoration:none;line-height:normal;letter-spacing:normal;word-spacing:normal;text-transform:none;direction:ltr;block-progression:tb;writing-mode:lr-tb;text-anchor:start;baseline-shift:baseline;color:#000000;fill:none;stroke:#ff0000;stroke-width:0.88582677;stroke-miterlimit:4;stroke-dasharray:none;marker:none;visibility:visible;display:inline;overflow:visible;enable-background:accumulate;font-family:Sans;-inkscape-font-specification:Sans"
       d="m 354.4375,152.375 a 14.174646,14.174646 0 0 0 -12.09375,6.59375 L 119.1875,513.03125 a 14.174646,14.174646 0 0 0 -0.125,0.15625 L 119,513.3125 a 14.174646,14.174646 0 0 0 -0.625,1.09375 14.174646,14.174646 0 0 0 -0.0625,0.15625 14.174646,14.174646 0 0 0 -0.5625,1.28125 14.174646,14.174646 0 0 0 -0.4375,1.3125 14.174646,14.174646 0 0 0 -0.125,0.59375 14.174646,14.174646 0 0 0 -0.15625,0.71875 14.174646,14.174646 0 0 0 -0.0937,0.59375 14.174646,14.174646 0 0 0 -0.0937,0.78125 14.174646,14.174646 0 0 0 0,0.15625 14.174646,14.174646 0 0 0 -0.0312,0.875 l 0,147.46875 A 14.174646,14.174646 0 0 0 131,682.53125 l 446.65625,0 a 14.174646,14.174646 0 0 0 14.1875,-14.1875 l 0,-147.46875 a 14.174646,14.174646 0 0 0 -0.0312,-0.4375 14.174646,14.174646 0 0 0 -0.0937,-1.34375 14.174646,14.174646 0 0 0 0,-0.0625 14.174646,14.174646 0 0 0 -0.15625,-0.96875 14.174646,14.174646 0 0 0 -0.0937,-0.4375 14.174646,14.174646 0 0 0 -0.0937,-0.3125 14.174646,14.174646 0 0 0 -0.3125,-1.03125 14.174646,14.174646 0 0 0 -0.53125,-1.3125 14.174646,14.174646 0 0 0 -0.5625,-1.15625 14.174646,14.174646 0 0 0 -0.0625,-0.125 14.174646,14.174646 0 0 0 -0.25,-0.375 14.174646,14.174646 0 0 0 -0.28125,-0.4375 L 366.3125,158.96875 a 14.174646,14.174646 0 0 0 -11.875,-6.59375 z"
       id="path3783"
       inkscape:connector-curvature="0" />
    <path
       style="font-size:medium;font-style:normal;font-variant:normal;font-weight:normal;font-stretch:normal;text-indent:0;text-align:start;text-decoration:none;line-height:normal;letter-spacing:normal;word-spacing:normal;text-transform:none;direction:ltr;block-progression:tb;writing-mode:lr-tb;text-anchor:start;baseline-shift:baseline;color:#000000;fill:none;stroke:#0000ff;stroke-width:0.88582677;stroke-miterlimit:4;stroke-dasharray:none;marker:none;visibility:visible;display:inline;overflow:visible;enable-background:accumulate;font-family:Sans;-inkscape-font-specification:Sans"
       d="m 354.3125,193.125 197.625,313.5625 -395.21875,0 L 354.3125,193.125 z"
       id="path3781"
       inkscape:connector-curvature="0" />
    <path
       style="font-size:medium;font-style:normal;font-variant:normal;font-weight:normal;font-stretch:normal;text-indent:0;text-align:start;text-decoration:none;line-height:normal;letter-spacing:normal;word-spacing:normal;text-transform:none;direction:ltr;block-progression:tb;writing-mode:lr-tb;text-anchor:start;baseline-shift:baseline;color:#000000;fill:none;stroke:#0000ff;stroke-width:0.88582677;stroke-miterlimit:4;stroke-dasharray:none;marker:none;visibility:visible;display:inline;overflow:visible;enable-background:accumulate;font-family:Sans;-inkscape-font-specification:Sans"
       d="m 145.1875,535.03125 418.3125,0 0,119.125 -418.3125,0 0,-119.125 z"
       id="path3764"
       inkscape:connector-curvature="0" />
  </g>
</svg>
